<svg width="124" height="46" viewBox="0 0 124 46" fill="none" xmlns="http://www.w3.org/2000/svg">
<path d="M24.9434 17.1719C27.123 17.1719 28.7637 17.7344 29.8652 18.8594C30.9785 19.9844 31.5352 21.7891 31.5352 24.2734V37H27.4043V25.0117C27.4043 23.5352 27.1172 22.4219 26.543 21.6719C25.9688 20.9219 25.0957 20.5469 23.9238 20.5469C22.2832 20.5469 21.0996 21.0742 20.373 22.1289C19.6582 23.1719 19.3008 24.6895 19.3008 26.6816V37H15.1699V25.0117C15.1699 24.0273 15.041 23.207 14.7832 22.5508C14.5371 21.8828 14.1562 21.3848 13.6406 21.0566C13.125 20.7168 12.4746 20.5469 11.6895 20.5469C10.5527 20.5469 9.64453 20.8047 8.96484 21.3203C8.29688 21.8359 7.81641 22.5977 7.52344 23.6055C7.23047 24.6016 7.08398 25.8262 7.08398 27.2793V37H2.95312V17.541H6.16992L6.75 20.1602H6.97852C7.37695 19.4805 7.86914 18.9238 8.45508 18.4902C9.05273 18.0449 9.71484 17.7168 10.4414 17.5059C11.168 17.2832 11.9238 17.1719 12.709 17.1719C14.1621 17.1719 15.3867 17.4297 16.3828 17.9453C17.3789 18.4492 18.123 19.2227 18.6152 20.2656H18.9316C19.541 19.2109 20.3906 18.4316 21.4805 17.9277C22.5703 17.4238 23.7246 17.1719 24.9434 17.1719ZM34.3652 17.541H38.8652L42.8555 28.6504C43.0312 29.1543 43.1895 29.6523 43.3301 30.1445C43.4824 30.625 43.6113 31.0996 43.7168 31.5684C43.834 32.0371 43.9277 32.5059 43.998 32.9746H44.1035C44.2207 32.3652 44.3848 31.6855 44.5957 30.9355C44.8184 30.1738 45.0645 29.4121 45.334 28.6504L49.166 17.541H53.6133L45.2637 39.6719C44.7832 40.9375 44.1914 42.0156 43.4883 42.9062C42.7969 43.8086 41.9766 44.4883 41.0273 44.9453C40.0781 45.4141 38.9941 45.6484 37.7754 45.6484C37.1895 45.6484 36.6797 45.6133 36.2461 45.543C35.8125 45.4844 35.4434 45.4199 35.1387 45.3496V42.0449C35.3848 42.1035 35.6953 42.1562 36.0703 42.2031C36.4453 42.25 36.832 42.2734 37.2305 42.2734C37.9688 42.2734 38.6074 42.127 39.1465 41.834C39.6855 41.541 40.1426 41.125 40.5176 40.5859C40.8926 40.0586 41.2031 39.4551 41.4492 38.7754L42.1348 36.9473L34.3652 17.541Z" fill="#DDDDDD"/>
<path d="M107.465 34.9844C107.465 34.5286 107.576 34.2064 107.797 34.0176C108.018 33.8223 108.288 33.7246 108.607 33.7246C108.939 33.7246 109.219 33.8223 109.447 34.0176C109.675 34.2064 109.789 34.5286 109.789 34.9844C109.789 35.4336 109.675 35.7624 109.447 35.9707C109.219 36.1725 108.939 36.2734 108.607 36.2734C108.288 36.2734 108.018 36.1725 107.797 35.9707C107.576 35.7624 107.465 35.4336 107.465 34.9844ZM115.187 25.1211C116.463 25.1211 117.41 25.4076 118.029 25.9805C118.647 26.5534 118.956 27.4681 118.956 28.7246V36H117.775L117.462 34.418H117.384C117.085 34.8086 116.772 35.1374 116.447 35.4043C116.121 35.6647 115.743 35.8633 115.314 36C114.891 36.1302 114.37 36.1953 113.751 36.1953C113.1 36.1953 112.521 36.0814 112.013 35.8535C111.512 35.6257 111.115 35.2806 110.822 34.8184C110.535 34.3561 110.392 33.7702 110.392 33.0605C110.392 31.9928 110.815 31.1725 111.661 30.5996C112.508 30.0267 113.797 29.7142 115.529 29.6621L117.374 29.584V28.9297C117.374 28.0052 117.176 27.3574 116.779 26.9863C116.381 26.6152 115.822 26.4297 115.099 26.4297C114.539 26.4297 114.005 26.5111 113.497 26.6738C112.99 26.8366 112.508 27.0286 112.052 27.25L111.554 26.0195C112.036 25.7721 112.589 25.5605 113.214 25.3848C113.839 25.209 114.497 25.1211 115.187 25.1211ZM117.355 30.7266L115.724 30.7949C114.389 30.847 113.449 31.0651 112.902 31.4492C112.355 31.8333 112.081 32.377 112.081 33.0801C112.081 33.6921 112.267 34.1445 112.638 34.4375C113.009 34.7305 113.501 34.877 114.113 34.877C115.063 34.877 115.841 34.6133 116.447 34.0859C117.052 33.5586 117.355 32.7676 117.355 31.7129V30.7266ZM122.137 25.2969V36H120.516V25.2969H122.137ZM121.346 21.293C121.613 21.293 121.841 21.3809 122.03 21.5566C122.225 21.7259 122.323 21.9928 122.323 22.3574C122.323 22.7155 122.225 22.9824 122.03 23.1582C121.841 23.334 121.613 23.4219 121.346 23.4219C121.066 23.4219 120.832 23.334 120.643 23.1582C120.461 22.9824 120.37 22.7155 120.37 22.3574C120.37 21.9928 120.461 21.7259 120.643 21.5566C120.832 21.3809 121.066 21.293 121.346 21.293Z" fill="#48B7F5"/>
<path d="M63.7148 8.44531C67.3997 8.44531 70.0885 9.23958 71.7812 10.8281C73.474 12.4036 74.3203 14.5781 74.3203 17.3516C74.3203 18.6016 74.1315 19.7995 73.7539 20.9453C73.3763 22.0781 72.7578 23.0872 71.8984 23.9727C71.0521 24.8581 69.9193 25.5612 68.5 26.082C67.0807 26.5898 65.3294 26.8438 63.2461 26.8438H60.6484V37H54.5938V8.44531H63.7148ZM63.4023 13.4062H60.6484V21.8828H62.6406C63.7734 21.8828 64.7565 21.7331 65.5898 21.4336C66.4232 21.1341 67.0677 20.6654 67.5234 20.0273C67.9792 19.3893 68.207 18.569 68.207 17.5664C68.207 16.1602 67.8164 15.1185 67.0352 14.4414C66.2539 13.7513 65.043 13.4062 63.4023 13.4062ZM82.4392 15.1641V37H76.4822V15.1641H82.4392ZM79.4705 6.60938C80.3559 6.60938 81.1176 6.81771 81.7556 7.23438C82.3936 7.63802 82.7127 8.39974 82.7127 9.51953C82.7127 10.6263 82.3936 11.3945 81.7556 11.8242C81.1176 12.2409 80.3559 12.4492 79.4705 12.4492C78.572 12.4492 77.8038 12.2409 77.1658 11.8242C76.5408 11.3945 76.2283 10.6263 76.2283 9.51953C76.2283 8.39974 76.5408 7.63802 77.1658 7.23438C77.8038 6.81771 78.572 6.60938 79.4705 6.60938ZM98.3511 14.7539C100.682 14.7539 102.557 15.3919 103.976 16.668C105.395 17.931 106.105 19.9622 106.105 22.7617V37H100.148V24.2461C100.148 22.6836 99.8615 21.5052 99.2886 20.7109C98.7287 19.9167 97.8433 19.5195 96.6323 19.5195C94.8094 19.5195 93.5659 20.138 92.9019 21.375C92.2378 22.612 91.9058 24.3958 91.9058 26.7266V37H85.9487V15.1641H90.4995L91.3003 17.957H91.6323C92.1011 17.2018 92.6805 16.5898 93.3706 16.1211C94.0737 15.6523 94.8485 15.3073 95.6948 15.0859C96.5542 14.8646 97.4396 14.7539 98.3511 14.7539Z" fill="#48B7F5"/>
</svg>
